<?xml version="1.0" encoding="utf-8"?>
<!-- Generator: Adobe Illustrator 19.2.1, SVG Export Plug-In . SVG Version: 6.00 Build 0)  -->
<svg version="1.1" id="Layer_1" xmlns="http://www.w3.org/2000/svg" xmlns:xlink="http://www.w3.org/1999/xlink" x="0px" y="0px"
	 viewBox="0 0 250 250" style="enable-background:new 0 0 250 250;" xml:space="preserve">
<style type="text/css">
	.st0{fill:#FFFFFF;}
</style>
<g>
	<rect x="143.8" y="17" class="st0" width="2.6" height="29.7"/>
	<rect x="103.6" y="17" class="st0" width="2.6" height="29.7"/>
	<g>
		<rect x="131.8" y="24.5" class="st0" width="2.9" height="2.9"/>
		<path class="st0" d="M127.3,17v5.5h-2.2V30h2.2v7.6h-2.2v1.6h2.2v7.5h13.4V17H127.3z M136.7,29.5h-6.9v-6.9h6.9V29.5z"/>
	</g>
	<g>
		<rect x="115.3" y="24.5" class="st0" width="2.9" height="2.9"/>
		<path class="st0" d="M125.3,20.4V17h-16.1v29.7h16.1v-5.5h-2.2v-5.6h2.2V32h-2.2V20.4H125.3z M120.2,29.5h-6.9v-6.9h6.9V29.5z"/>
	</g>
	<path class="st0" d="M155.5,144.3c0.8,0,1.5-0.7,1.5-1.5V51.2c0-0.8-0.7-1.5-1.5-1.5h-61c-0.8,0-1.5,0.7-1.5,1.5v91.6
		c0,0.8,0.7,1.5,1.5,1.5H155.5z"/>
	<rect x="120.5" y="163.9" class="st0" width="9" height="86.1"/>
	<path class="st0" d="M103.6,147.3v12.2c0,0.8,0.7,1.5,1.5,1.5h39.8c0.8,0,1.5-0.7,1.5-1.5v-12.2H103.6z"/>
</g>
</svg>
