<?xml version="1.0" encoding="utf-8"?>
<!-- Generator: Adobe Illustrator 19.2.1, SVG Export Plug-In . SVG Version: 6.00 Build 0)  -->
<svg version="1.1" id="Layer_1" xmlns="http://www.w3.org/2000/svg" xmlns:xlink="http://www.w3.org/1999/xlink" x="0px" y="0px"
	 viewBox="0 0 250 250" style="enable-background:new 0 0 250 250;" xml:space="preserve">
<style type="text/css">
	.st0{fill:#FFFFFF;}
</style>
<g>
	<path class="st0" d="M157.2,97.9H92.8c-17,0-30.7,13.7-30.7,30.7v33.8c0,14.3,9.8,26.3,23,29.7c-0.1,2.5-0.2,7.9,1.8,7.9
		c1.8,0,4.7-4.2,6.4-6.9h63.4c1.7,2.7,4.6,6.9,6.4,6.9c2,0,1.9-5.4,1.8-7.9c13.2-3.4,23-15.4,23-29.7v-33.8
		C187.9,111.7,174.2,97.9,157.2,97.9z M157,169.1c0,3.3-2.7,6-6,6H83c-3.3,0-6-2.7-6-6v-47.2c0-3.3,2.7-6,6-6h68c3.3,0,6,2.7,6,6
		V169.1z M169.8,164.4c-3.9,0-7.1-3.2-7.1-7.1c0-3.9,3.2-7.1,7.1-7.1s7.1,3.2,7.1,7.1C177,161.2,173.8,164.4,169.8,164.4z
		 M169.8,136.8c-3.9,0-7.1-3.2-7.1-7.1c0-3.9,3.2-7.1,7.1-7.1s7.1,3.2,7.1,7.1C177,133.6,173.8,136.8,169.8,136.8z"/>
	<path class="st0" d="M96.8,58.9c0.2,0,0.4,0,0.7-0.1l17.9,27.5c-2.6,2.2-4.5,5.2-5.2,8.7h0.8H139h0.8c-0.7-3.5-2.6-6.5-5.2-8.7
		l8.8-13.5c0.2,0,0.5,0.1,0.8,0.1c2.5,0,4.6-2.1,4.6-4.6s-2.1-4.6-4.6-4.6s-4.6,2.1-4.6,4.6c0,0.9,0.3,1.8,0.8,2.5l-8.8,13.5
		c-2-1-4.2-1.5-6.6-1.5c-2.4,0-4.6,0.5-6.6,1.5l-17.9-27.5c0.4-0.7,0.7-1.5,0.7-2.4c0-2.5-2-4.4-4.4-4.4c-2.5,0-4.4,2-4.4,4.4
		C92.3,56.9,94.3,58.9,96.8,58.9z"/>
</g>
</svg>
