<svg id="Layer_1" data-name="Layer 1" xmlns="http://www.w3.org/2000/svg" viewBox="0 0 175.58 136.51"><title>table-icon</title><path d="M607.18,395.08c-.95,3.91-.45,7.32-.42,10.89,3.7-.18,6.35-2.11,9.33-3,1.13-.34,2.25-.82,3.24.24s.65,2.22.34,3.3a2.13,2.13,0,0,1-2.74,1.56c-2.38-.69-4.16.63-6.59,1.54,2.08,2.25,4.76,2.59,7,3.58,2,.86,2.85,2.13,2.43,4.28a2.67,2.67,0,0,1-1.79,2.19c-1.14.39-1.76-.46-2.52-1.14-8.35-7.41-15-8.14-23.48.45a2.66,2.66,0,0,1-2.55,1,2,2,0,0,1-1.56-2.24c.07-1.41-.58-3.13,1.24-4,2.54-1.16,5.13-2.23,8.31-3.61-2.18-1.44-3.58-3-6-1.47-1.06.68-2.37.8-3.11-.38a5.35,5.35,0,0,1-.21-4.81c.64-1.62,2.24-1,3.49-.52,2.93,1.09,5.84,2.25,9.06,3.5.13-1.28.28-2.08.28-2.88,0-2.66.56-5.54-.26-7.93-1-2.86-4.55-2-6.9-2.9-3.91-1.56-6.07-4-6.79-8.3-2.23-13.46-4.87-26.84-8.22-40.08-2.13-8.41.27-12.15,8.69-13.05a144.41,144.41,0,0,1,17-.55c4.2,0,6.68,2.56,8.07,7.53a90.29,90.29,0,0,0,4.25,13.1c-1.49-6.82-1.2-14.18-6.22-19.91a8.1,8.1,0,0,0-5.3-2.52c-1.74-.21-4.34.92-4.29-2.5,0-2.89.82-5.42,3.86-6.28a34.24,34.24,0,0,1,6.91-1c3-.2,6-.21,9-.2,4.88,0,6.74,1.52,8.15,6.35.73,2.5.91,5.2,2.76,7.62.4-9-2.34-13.17-10.14-15.78-2.76-.92-1.54-2.9-1.14-4.45.51-2,2.23-2.84,4.11-3.22,2.44-.5,4.9-1,7.37-1.28,8.37-1,9.68-.11,12,8,.22.78.46,1.56.69,2.31,6.42-1.06,6.42-1.06,6.42-7.37,0-8.2,1.52-10.16,9.51-11.75a25.83,25.83,0,0,1,15.2,1.37c3.45,1.43,5.36,3.77,5.1,7.67-.13,1.82.19,3.69-.06,5.49-.51,3.73,2.38,3.93,4.64,4.58,3.1.89,2.43-1.95,2.86-3.4,1.91-6.52,3.2-7.6,9.87-7.07a93.56,93.56,0,0,1,9.36,1.45,5.21,5.21,0,0,1,4.47,4.72c.27,1.71,0,2.87-2.18,3-5.25.22-7.57,3.72-8.53,8.31-.49,2.36-1.94,4.57-1.38,7.66,2.18-2.12,2.25-4.67,2.91-6.87,1.93-6.4,3.09-7.36,9.84-7.35A78,78,0,0,1,726,320c2.94.51,4.26,2.4,4.76,5.05s0,4.25-3.22,4a7.9,7.9,0,0,0-7.3,3.6c-3.88,5.73-3.83,12.62-5.59,19,2.59-3.58,3.24-7.79,4.29-11.84,1.88-7.29,4-9.12,11.43-9,5.16.08,10.34-.12,15.45.82,6.48,1.2,8.83,4.37,7.55,10.92-1.76,9-3.9,17.87-5.79,26.83-1,4.88-2.13,9.78-2.69,14.73s-3.37,7.55-7.92,9c-8.4,2.7-8.37,2.8-7.72,11.81a4.76,4.76,0,0,0,.42,1.1c3.19-.09,5.85-2,8.81-2.9,1.24-.38,2.59-1.14,3.63.3.75,1,.43,2.24.07,3.36-.46,1.45-1.66,1.57-2.83,1.3-2.34-.55-4,.64-6.43,1.79,2.4,1.89,4.82,2.43,7,3.32,2,.79,2.93,2,2.46,4.22a2.65,2.65,0,0,1-1.67,2.28c-1.12.37-1.82-.3-2.52-1.09a16.46,16.46,0,0,0-22.09-2.24,2.31,2.31,0,0,0-.92,1.09c-.34,1.62-.91,2.92-2.9,2.63-1.46-.21-1.76-1.31-1.82-2.56-.08-1.73,0-3.33,2-4.08,2.42-.92,4.81-1.93,8.3-3.34-2.81-1-4.09-2.86-6.31-1.49-1.26.77-2.67,1.09-3.49-.34a5,5,0,0,1-.08-4.75c1-1.88,2.66-.72,4-.27,2.78.94,5.38,2.48,8.58,3,.64-3.11.39-5.88.18-9.24-6.5,2-12.89,3.66-19.2,5.42-3.54,1-5.34,4.36-5.38,8.24,0,4.83-.29,9.68.07,14.49.28,3.74-1.47,5.51-4.55,6.73a44.08,44.08,0,0,1-12.13,2.79c-12.31,1.14-24.62,1.31-36.87-.78a59.62,59.62,0,0,1-6.24-1.75c-3.84-1.1-5.74-3.31-5.39-7.62.37-4.64.13-9.33.06-14-.07-4.32-2.34-7.47-6.32-8.63C620.84,399.82,613.93,398.08,607.18,395.08Zm53.24-2.1c17.36.1,29.12-1,40.75-3.19,8.49-1.57,17-3.31,24.61-7.74,4-2.32,4.12-3.35,1.34-6.89-12.54-16-25.14-31.88-37.63-47.88a13.83,13.83,0,0,0-8.15-5.32,71.4,71.4,0,0,0-31.18,0,12.05,12.05,0,0,0-7.17,4.2q-19.3,24.51-38.66,49c-1.77,2.22-1,3.54.83,4.92a36.18,36.18,0,0,0,10.25,5A151,151,0,0,0,660.43,393Z" transform="translate(-578.11 -298.92)"/></svg>