<svg id="Layer_1" data-name="Layer 1" xmlns="http://www.w3.org/2000/svg" viewBox="0 0 201 201"><defs><style>.cls-1{fill:#fff;}</style></defs><title>table-icon</title><path class="cls-1" d="M564,460.11q0-100.5,0-201H765q0,100.5,0,201Zm43.18-64.92c6.75,3,13.66,4.75,20.49,6.75,4,1.17,6.25,4.31,6.32,8.63.08,4.66.31,9.35-.06,14-.34,4.32,1.56,6.53,5.39,7.62a59.62,59.62,0,0,0,6.24,1.75c12.24,2.09,24.56,1.92,36.87.78a44.08,44.08,0,0,0,12.13-2.79c3.09-1.22,4.83-3,4.55-6.73-.36-4.81-.11-9.66-.07-14.49,0-3.88,1.83-7.25,5.38-8.24,6.32-1.76,12.7-3.38,19.2-5.42.2,3.36.45,6.13-.18,9.24-3.2-.49-5.79-2-8.58-3-1.32-.45-3-1.6-4,.27a5,5,0,0,0,.08,4.75c.82,1.43,2.24,1.11,3.49.34,2.22-1.37,3.5.46,6.31,1.49-3.49,1.41-5.87,2.42-8.3,3.34-2,.75-2.09,2.35-2,4.08.06,1.25.36,2.35,1.82,2.56,2,.29,2.56-1,2.9-2.63a2.31,2.31,0,0,1,.92-1.09,16.46,16.46,0,0,1,22.09,2.24c.7.79,1.4,1.46,2.52,1.09a2.65,2.65,0,0,0,1.67-2.28c.47-2.2-.46-3.43-2.46-4.22-2.22-.88-4.64-1.43-7-3.32,2.38-1.15,4.09-2.34,6.43-1.79,1.18.28,2.37.15,2.83-1.3.36-1.12.68-2.31-.07-3.36-1-1.45-2.38-.68-3.63-.3-3,.91-5.61,2.8-8.81,2.9a4.76,4.76,0,0,1-.42-1.1c-.65-9-.68-9.1,7.72-11.81,4.55-1.46,7.35-4,7.92-9s1.66-9.84,2.69-14.73c1.88-9,4-17.85,5.79-26.83,1.29-6.56-1.07-9.72-7.55-10.92-5.11-.95-10.29-.75-15.45-.82-7.42-.11-9.56,1.72-11.43,9-1,4.06-1.7,8.27-4.29,11.84,1.77-6.37,1.71-13.26,5.59-19a7.9,7.9,0,0,1,7.3-3.6c3.22.23,3.7-1.51,3.22-4s-1.82-4.54-4.76-5.05a78,78,0,0,0-13.44-1c-6.74,0-7.91.95-9.84,7.35-.66,2.2-.73,4.75-2.91,6.87-.56-3.1.89-5.31,1.38-7.66,1-4.59,3.29-8.08,8.53-8.31,2.17-.09,2.45-1.25,2.18-3a5.21,5.21,0,0,0-4.47-4.72,93.56,93.56,0,0,0-9.36-1.45c-6.67-.53-8,.54-9.87,7.07-.43,1.45.25,4.29-2.86,3.4-2.26-.65-5.16-.86-4.64-4.58.25-1.8-.07-3.67.06-5.49.27-3.91-1.64-6.24-5.1-7.67a25.83,25.83,0,0,0-15.2-1.37c-8,1.58-9.5,3.55-9.51,11.75,0,6.31,0,6.31-6.42,7.37-.22-.75-.47-1.53-.69-2.31-2.27-8.15-3.58-9.06-12-8-2.47.3-4.93.78-7.37,1.28-1.87.38-3.6,1.25-4.11,3.22-.4,1.55-1.62,3.53,1.14,4.45,7.8,2.6,10.54,6.8,10.14,15.78-1.86-2.41-2-5.12-2.76-7.62-1.41-4.83-3.27-6.33-8.15-6.35-3,0-6,0-9,.2a34.24,34.24,0,0,0-6.91,1c-3,.85-3.81,3.39-3.86,6.28-.05,3.42,2.54,2.29,4.29,2.5a8.1,8.1,0,0,1,5.3,2.52c5,5.73,4.74,13.1,6.22,19.91a90.29,90.29,0,0,1-4.25-13.1c-1.39-5-3.87-7.48-8.07-7.53a144.41,144.41,0,0,0-17,.55c-8.43.9-10.82,4.64-8.69,13.05,3.35,13.24,6,26.62,8.22,40.08.72,4.33,2.88,6.74,6.79,8.3,2.35.94,5.93,0,6.9,2.9.82,2.4.26,5.27.26,7.93,0,.8-.15,1.59-.28,2.88-3.22-1.25-6.13-2.4-9.06-3.5-1.24-.46-2.85-1.1-3.49.52a5.35,5.35,0,0,0,.21,4.81c.75,1.18,2.05,1.06,3.11.38,2.39-1.54,3.79,0,6,1.47-3.19,1.38-5.77,2.45-8.31,3.61-1.82.83-1.17,2.55-1.24,4a2,2,0,0,0,1.56,2.24,2.66,2.66,0,0,0,2.55-1c8.49-8.59,15.13-7.86,23.48-.45.76.68,1.38,1.53,2.52,1.14a2.67,2.67,0,0,0,1.79-2.19c.42-2.15-.45-3.42-2.43-4.28-2.29-1-5-1.33-7-3.58,2.43-.91,4.21-2.22,6.59-1.54a2.13,2.13,0,0,0,2.74-1.56c.32-1.08.59-2.3-.34-3.3s-2.11-.58-3.24-.24c-3,.89-5.63,2.82-9.33,3C606.71,402.5,606.21,399.09,607.16,395.18Z" transform="translate(-563.98 -259.11)"/><path d="M607.16,395.18c-.95,3.91-.45,7.32-.42,10.89,3.7-.18,6.35-2.11,9.33-3,1.13-.34,2.25-.82,3.24.24s.65,2.22.34,3.3a2.13,2.13,0,0,1-2.74,1.56c-2.38-.69-4.16.63-6.59,1.54,2.08,2.25,4.76,2.59,7,3.58,2,.86,2.85,2.13,2.43,4.28a2.67,2.67,0,0,1-1.79,2.19c-1.14.39-1.76-.46-2.52-1.14-8.35-7.41-15-8.14-23.48.45a2.66,2.66,0,0,1-2.55,1,2,2,0,0,1-1.56-2.24c.07-1.41-.58-3.13,1.24-4,2.54-1.16,5.13-2.23,8.31-3.61-2.18-1.44-3.58-3-6-1.47-1.06.68-2.37.8-3.11-.38a5.35,5.35,0,0,1-.21-4.81c.64-1.62,2.24-1,3.49-.52,2.93,1.09,5.84,2.25,9.06,3.5.13-1.28.28-2.08.28-2.88,0-2.66.56-5.54-.26-7.93-1-2.86-4.55-2-6.9-2.9-3.91-1.56-6.07-4-6.79-8.3-2.23-13.46-4.87-26.84-8.22-40.08-2.13-8.41.27-12.15,8.69-13.05a144.41,144.41,0,0,1,17-.55c4.2,0,6.68,2.56,8.07,7.53a90.29,90.29,0,0,0,4.25,13.1c-1.49-6.82-1.2-14.18-6.22-19.91a8.1,8.1,0,0,0-5.3-2.52c-1.74-.21-4.34.92-4.29-2.5,0-2.89.82-5.42,3.86-6.28a34.24,34.24,0,0,1,6.91-1c3-.2,6-.21,9-.2,4.88,0,6.74,1.52,8.15,6.35.73,2.5.91,5.2,2.76,7.62.4-9-2.34-13.17-10.14-15.78-2.76-.92-1.54-2.9-1.14-4.45.51-2,2.23-2.84,4.11-3.22,2.44-.5,4.9-1,7.37-1.28,8.37-1,9.68-.11,12,8,.22.78.46,1.56.69,2.31,6.42-1.06,6.42-1.06,6.42-7.37,0-8.2,1.52-10.16,9.51-11.75a25.83,25.83,0,0,1,15.2,1.37c3.45,1.43,5.36,3.77,5.1,7.67-.13,1.82.19,3.69-.06,5.49-.51,3.73,2.38,3.93,4.64,4.58,3.1.89,2.43-1.95,2.86-3.4,1.91-6.52,3.2-7.6,9.87-7.07a93.56,93.56,0,0,1,9.36,1.45,5.21,5.21,0,0,1,4.47,4.72c.27,1.71,0,2.87-2.18,3-5.25.22-7.57,3.72-8.53,8.31-.49,2.36-1.94,4.57-1.38,7.66,2.18-2.12,2.25-4.67,2.91-6.87,1.93-6.4,3.09-7.36,9.84-7.35a78,78,0,0,1,13.44,1c2.94.51,4.26,2.4,4.76,5.05s0,4.25-3.22,4a7.9,7.9,0,0,0-7.3,3.6c-3.88,5.73-3.83,12.62-5.59,19,2.59-3.58,3.24-7.79,4.29-11.84,1.88-7.29,4-9.12,11.43-9,5.16.08,10.34-.12,15.45.82,6.48,1.2,8.83,4.37,7.55,10.92-1.76,9-3.9,17.87-5.79,26.83-1,4.88-2.13,9.78-2.69,14.73s-3.37,7.55-7.92,9c-8.4,2.7-8.37,2.8-7.72,11.81a4.76,4.76,0,0,0,.42,1.1c3.19-.09,5.85-2,8.81-2.9,1.24-.38,2.59-1.14,3.63.3.75,1,.43,2.24.07,3.36-.46,1.45-1.66,1.57-2.83,1.3-2.34-.55-4,.64-6.43,1.79,2.4,1.89,4.82,2.43,7,3.32,2,.79,2.93,2,2.46,4.22a2.65,2.65,0,0,1-1.67,2.28c-1.12.37-1.82-.3-2.52-1.09a16.46,16.46,0,0,0-22.09-2.24,2.31,2.31,0,0,0-.92,1.09c-.34,1.62-.91,2.92-2.9,2.63-1.46-.21-1.76-1.31-1.82-2.56-.08-1.73,0-3.33,2-4.08,2.42-.92,4.81-1.93,8.3-3.34-2.81-1-4.09-2.86-6.31-1.49-1.26.77-2.67,1.09-3.49-.34a5,5,0,0,1-.08-4.75c1-1.88,2.66-.72,4-.27,2.78.94,5.38,2.48,8.58,3,.64-3.11.39-5.88.18-9.24-6.5,2-12.89,3.66-19.2,5.42-3.54,1-5.34,4.36-5.38,8.24,0,4.83-.29,9.68.07,14.49.28,3.74-1.47,5.51-4.55,6.73a44.08,44.08,0,0,1-12.13,2.79c-12.31,1.14-24.62,1.31-36.87-.78a59.62,59.62,0,0,1-6.24-1.75c-3.84-1.1-5.74-3.31-5.39-7.62.37-4.64.13-9.33.06-14-.07-4.32-2.34-7.47-6.32-8.63C620.82,399.93,613.91,398.18,607.16,395.18Zm53.24-2.1c17.36.1,29.12-1,40.75-3.19,8.49-1.57,17-3.31,24.61-7.74,4-2.32,4.12-3.35,1.34-6.89-12.54-16-25.14-31.88-37.63-47.88a13.83,13.83,0,0,0-8.15-5.32,71.4,71.4,0,0,0-31.18,0,12.05,12.05,0,0,0-7.17,4.2q-19.3,24.51-38.66,49c-1.77,2.22-1,3.54.83,4.92a36.18,36.18,0,0,0,10.25,5A151,151,0,0,0,660.4,393.08Z" transform="translate(-563.98 -259.11)"/><path class="cls-1" d="M660.4,393.08a151,151,0,0,1-45-7.84,36.18,36.18,0,0,1-10.25-5c-1.81-1.37-2.6-2.69-.83-4.92q19.42-24.42,38.66-49a12.05,12.05,0,0,1,7.17-4.2,71.4,71.4,0,0,1,31.18,0,13.83,13.83,0,0,1,8.15,5.32c12.5,16,25.09,31.92,37.63,47.88,2.78,3.54,2.65,4.57-1.34,6.89-7.6,4.42-16.12,6.16-24.61,7.74C689.52,392,677.76,393.18,660.4,393.08Z" transform="translate(-563.98 -259.11)"/></svg>