<?xml version="1.0" encoding="utf-8"?>
<!-- Generator: Adobe Illustrator 19.2.1, SVG Export Plug-In . SVG Version: 6.00 Build 0)  -->
<svg version="1.1" id="Layer_1" xmlns="http://www.w3.org/2000/svg" xmlns:xlink="http://www.w3.org/1999/xlink" x="0px" y="0px"
	 viewBox="0 0 250 250" style="enable-background:new 0 0 250 250;" xml:space="preserve">
<style type="text/css">
	.st0{fill:#FFFFFF;}
</style>
<g>
	<path class="st0" d="M125,107.9c-5.2,0-9.5-4.3-9.5-9.5c0-5.2,4.3-9.5,9.5-9.5c5.2,0,9.5,4.3,9.5,9.5
		C134.5,103.6,130.2,107.9,125,107.9z"/>
	<path class="st0" d="M125,77.8c-11.4,0-20.6,9.2-20.6,20.6S113.6,119,125,119s20.6-9.2,20.6-20.6S136.4,77.8,125,77.8z M125,111.9
		c-7.4,0-13.5-6-13.5-13.5c0-7.4,6-13.5,13.5-13.5s13.5,6,13.5,13.5C138.5,105.8,132.4,111.9,125,111.9z"/>
	<path class="st0" d="M94.3,161.1c-5.2,0-9.5-4.3-9.5-9.5c0-5.2,4.3-9.5,9.5-9.5c5.2,0,9.5,4.3,9.5,9.5
		C103.8,156.8,99.5,161.1,94.3,161.1z"/>
	<path class="st0" d="M94.3,131c-11.4,0-20.6,9.2-20.6,20.6s9.2,20.6,20.6,20.6s20.6-9.2,20.6-20.6S105.6,131,94.3,131z M94.3,165.1
		c-7.4,0-13.5-6-13.5-13.5s6-13.5,13.5-13.5s13.5,6,13.5,13.5S101.7,165.1,94.3,165.1z"/>
	<path class="st0" d="M155.7,161.1c-5.2,0-9.5-4.3-9.5-9.5c0-5.2,4.3-9.5,9.5-9.5s9.5,4.3,9.5,9.5
		C165.2,156.8,161,161.1,155.7,161.1z"/>
	<path class="st0" d="M155.7,131c-11.4,0-20.6,9.2-20.6,20.6s9.2,20.6,20.6,20.6s20.6-9.2,20.6-20.6S167.1,131,155.7,131z
		 M155.7,165.1c-7.4,0-13.5-6-13.5-13.5s6-13.5,13.5-13.5s13.5,6,13.5,13.5S163.2,165.1,155.7,165.1z"/>
</g>
</svg>
