<?xml version="1.0" encoding="utf-8"?>
<!-- Generator: Adobe Illustrator 19.2.1, SVG Export Plug-In . SVG Version: 6.00 Build 0)  -->
<svg version="1.1" id="Layer_1" xmlns="http://www.w3.org/2000/svg" xmlns:xlink="http://www.w3.org/1999/xlink" x="0px" y="0px"
	 viewBox="0 0 250 250" style="enable-background:new 0 0 250 250;" xml:space="preserve">
<style type="text/css">
	.st0{fill:#FFFFFF;}
</style>
<g>
	<path class="st0" d="M178.8,109.3H71.2c-0.8,0-1.5,0.7-1.5,1.5v19.1c0,0.8,0.7,1.5,1.5,1.5h3.3c1.9,0,4.7,0.6,6.4,1.5l13.7,6.7
		c1.3,0.6,3.6,1.2,5,1.2h50.7c1.4,0,3.7-0.6,5-1.2l12.6-6.5c1.7-0.9,4.5-1.5,6.4-1.5h4.6c0.8,0,1.5-0.7,1.5-1.5v-19.1
		C180.3,110,179.6,109.3,178.8,109.3z M165.4,129.5h-3.6v2.7H88.2v-2.7h-3.6V113h80.7V129.5z"/>
	<path class="st0" d="M87.6,116v10.5h3.6v2.7h67.6v-2.7h3.6V116H87.6z M160.3,122.6c0,0.6-0.4,1-1,1h-2.8v2.1c0,0.6-0.4,1-1,1
		s-1-0.4-1-1v-2.1h-5.6v2.1c0,0.6-0.4,1-1,1s-1-0.4-1-1v-2.1h-5.6v2.1c0,0.6-0.4,1-1,1s-1-0.4-1-1v-2.1h-5.6v2.1c0,0.6-0.4,1-1,1
		s-1-0.4-1-1v-2.1H126v2.1c0,0.6-0.4,1-1,1s-1-0.4-1-1v-2.1h-5.6v2.1c0,0.6-0.4,1-1,1s-1-0.4-1-1v-2.1h-5.6v2.1c0,0.6-0.4,1-1,1
		s-1-0.4-1-1v-2.1h-5.6v2.1c0,0.6-0.4,1-1,1s-1-0.4-1-1v-2.1h-5.6v2.1c0,0.6-0.4,1-1,1s-1-0.4-1-1v-2.1h-2.8c-0.6,0-1-0.4-1-1v-3.1
		c0-0.6,0.4-1,1-1s1,0.4,1,1v2.1h5.6v-2.1c0-0.6,0.4-1,1-1s1,0.4,1,1v2.1h5.6v-2.1c0-0.6,0.4-1,1-1s1,0.4,1,1v2.1h5.6v-2.1
		c0-0.6,0.4-1,1-1s1,0.4,1,1v2.1h5.6v-2.1c0-0.6,0.4-1,1-1s1,0.4,1,1v2.1h5.6v-2.1c0-0.6,0.4-1,1-1s1,0.4,1,1v2.1h5.6v-2.1
		c0-0.6,0.4-1,1-1s1,0.4,1,1v2.1h5.6v-2.1c0-0.6,0.4-1,1-1s1,0.4,1,1v2.1h5.6v-2.1c0-0.6,0.4-1,1-1s1,0.4,1,1v2.1h5.6v-2.1
		c0-0.6,0.4-1,1-1s1,0.4,1,1V122.6z"/>
	<path class="st0" d="M178.8,102.3H71.2c-4.7,0-8.5,3.8-8.5,8.5v19.1c0,4.7,3.8,8.5,8.5,8.5h3.3c0.8,0,2.6,0.4,3.3,0.8l13.7,6.7
		c2.2,1.1,5.6,1.9,8.1,1.9h50.7c2.5,0,6-0.8,8.2-2l12.6-6.5c0.7-0.3,2.4-0.8,3.1-0.8h4.6c4.7,0,8.5-3.8,8.5-8.5v-19.1
		C187.3,106.1,183.5,102.3,178.8,102.3z M183.3,129.9c0,2.5-2,4.5-4.5,4.5h-4.6c-1.4,0-3.7,0.6-5,1.2l-12.6,6.5
		c-1.7,0.9-4.5,1.5-6.4,1.5H99.6c-1.9,0-4.7-0.6-6.4-1.5l-13.7-6.7c-1.3-0.6-3.6-1.2-5-1.2h-3.3c-2.5,0-4.5-2-4.5-4.5v-19.1
		c0-2.5,2-4.5,4.5-4.5h107.6c2.5,0,4.5,2,4.5,4.5V129.9z"/>
</g>
</svg>
