<?xml version="1.0" encoding="utf-8"?>
<!-- Generator: Adobe Illustrator 19.2.1, SVG Export Plug-In . SVG Version: 6.00 Build 0)  -->
<svg version="1.1" id="Layer_1" xmlns="http://www.w3.org/2000/svg" xmlns:xlink="http://www.w3.org/1999/xlink" x="0px" y="0px"
	 viewBox="0 0 250 250" style="enable-background:new 0 0 250 250;" xml:space="preserve">
<style type="text/css">
	.st0{fill:#FFFFFF;}
</style>
<g>
	<g>
		<path class="st0" d="M163.5,46.9c0.8,0,1.5-0.7,1.5-1.5V34.2c0-0.8-0.7-1.5-1.5-1.5H38.1c-0.8,0-1.5,0.7-1.5,1.5v11.2
			c0,0.8,0.7,1.5,1.5,1.5h18.3c2.5,0,4.5,2,4.5,4.5v48.9c0,0.8,0.7,1.5,1.5,1.5h76.8c0.8,0,1.5-0.7,1.5-1.5V51.4
			c0-2.5,2-4.5,4.5-4.5H163.5z"/>
		<g>
			<rect x="96.3" y="118.7" class="st0" width="9" height="131.3"/>
		</g>
		<path class="st0" d="M49.9,29.7v-3.5c0-1.4-1.1-2.5-2.5-2.5s-2.5,1.1-2.5,2.5v3.5H49.9z"/>
		<path class="st0" d="M156.7,29.7v-3.5c0-1.4-1.1-2.5-2.5-2.5s-2.5,1.1-2.5,2.5v3.5H156.7z"/>
		<path class="st0" d="M42.1,49.9v14.6c0,1.9,1.6,3.5,3.5,3.5h3.6c1.9,0,3.5-1.6,3.5-3.5V49.9H42.1z"/>
		<path class="st0" d="M148.9,49.9v14.6c0,1.9,1.6,3.5,3.5,3.5h3.6c1.9,0,3.5-1.6,3.5-3.5V49.9H148.9z"/>
		<path class="st0" d="M78.4,104.8v9.4c0,0.8,0.7,1.5,1.5,1.5h41.8c0.8,0,1.5-0.7,1.5-1.5v-9.4H78.4z"/>
		<path class="st0" d="M132.4,17H69.2c-0.8,0-1.5,0.7-1.5,1.5v11.2h66.1V18.5C133.9,17.6,133.2,17,132.4,17z"/>
	</g>
	<g>
		<rect x="196.2" y="122.3" class="st0" width="9" height="127.7"/>
		<path class="st0" d="M193.6,108v9.8c0,0.8,0.7,1.5,1.5,1.5h11.1c0.8,0,1.5-0.7,1.5-1.5V108H193.6z"/>
		<path class="st0" d="M189.5,105h22.4c0.8,0,1.5-0.7,1.5-1.5V58.7c0-0.8-0.7-1.5-1.5-1.5h-22.4c-0.8,0-1.5,0.7-1.5,1.5v44.8
			C188,104.3,188.7,105,189.5,105z"/>
		<path class="st0" d="M208.2,48.9c0-0.8-0.7-1.5-1.5-1.5h-12c-0.8,0-1.5,0.7-1.5,1.5v4.8c0,0.2,0,0.3,0.1,0.5h14.8
			c0.1-0.2,0.1-0.3,0.1-0.5V48.9z"/>
		<path class="st0" d="M203.8,26.9v-6.4c0-1.9-1.4-3.5-3.1-3.5s-3.1,1.6-3.1,3.5v6.4H203.8z"/>
		<rect x="197.6" y="29.9" class="st0" width="6.2" height="5.2"/>
		<rect x="197.6" y="38.1" class="st0" width="6.2" height="6.3"/>
	</g>
</g>
</svg>
